<svg xmlns="http://www.w3.org/2000/svg" viewBox="0 0 334.21 445.84"><defs><style>.cls-1{fill:#272121;}.cls-2{fill:#443737;}.cls-3{fill:#4f4343;}.cls-4{font-size:32.9px;fill:#fff;font-family:Helvetica-Bold, Helvetica;font-weight:700;}</style></defs><title>baterai</title><g id="Layer_2" data-name="Layer 2"><g id="Layer_1-2" data-name="Layer 1"><path class="cls-1" d="M310.83,441.84H23.37A19.37,19.37,0,0,1,4,422.47V23.37A19.37,19.37,0,0,1,23.37,4H310.83A19.37,19.37,0,0,1,330.2,23.37v399.1a19.37,19.37,0,0,1-19.37,19.37Z"/><path class="cls-2" d="M310.83,4h-20a19.38,19.38,0,0,1,19.38,19.38V422.47a19.38,19.38,0,0,1-19.38,19.37h20a19.38,19.38,0,0,0,19.38-19.37V23.38A19.38,19.38,0,0,0,310.83,4Z"/><path class="cls-3" d="M23.37,441.84h20A19.37,19.37,0,0,1,24,422.47V23.38A19.38,19.38,0,0,1,43.37,4h-20A19.37,19.37,0,0,0,4,23.38V422.47A19.37,19.37,0,0,0,23.37,441.84Z"/><path class="cls-1" d="M310.83,445.84H23.38A23.4,23.4,0,0,1,0,422.47V23.38A23.41,23.41,0,0,1,23.38,0H310.83a23.41,23.41,0,0,1,23.38,23.38V422.47a23.41,23.41,0,0,1-23.38,23.37ZM23.38,8A15.4,15.4,0,0,0,8,23.38V422.47a15.39,15.39,0,0,0,15.38,15.37H310.83a15.39,15.39,0,0,0,15.38-15.37V23.38A15.4,15.4,0,0,0,310.83,8Z"/><path class="cls-1" d="M16,109.07a4,4,0,0,1-4-4v-24a4,4,0,0,1,8,0v24A4,4,0,0,1,16,109.07Z"/><text class="cls-4" transform="translate(41.87 109.07)">ACIER ENERGY</text></g></g></svg>