<?xml version="1.0" encoding="iso-8859-1"?>
<!-- Generator: Adobe Illustrator 19.0.0, SVG Export Plug-In . SVG Version: 6.00 Build 0)  -->
<svg version="1.1" id="Capa_1" xmlns="http://www.w3.org/2000/svg" xmlns:xlink="http://www.w3.org/1999/xlink" x="0px" y="0px"
	 viewBox="0 0 512 512" style="enable-background:new 0 0 512 512;" xml:space="preserve">
<path style="fill:#FFA816;" d="M400.783,162.518v299.858c0,15.404-12.605,28.01-28.01,28.01H240.284
	c-15.404,0-28.01-12.605-28.01-28.01V162.518c0-15.404,12.605-28.01,28.01-28.01h132.489
	C388.176,134.508,400.783,147.113,400.783,162.518z"/>
<path style="fill:#FFC843;" d="M400.783,162.518v299.858c0,15.404-12.605,28.01-28.01,28.01H261.387
	c-15.404,0-28.01-12.605-28.01-28.01V162.518c0-15.404,12.605-28.01,28.01-28.01h111.386
	C388.176,134.508,400.783,147.113,400.783,162.518z"/>
<rect x="212.276" y="189.424" style="fill:#FFFFFF;" width="188.508" height="246.056"/>
<rect x="212.276" y="189.424" style="fill:#76FFD9;" width="21.103" height="246.056"/>
<path style="fill:#FF8025;" d="M176.526,74.709c0,24.632-14.477,45.895-35.399,55.718c-7.932,3.74-16.79,5.821-26.14,5.821
	c-33.972,0-61.519-27.557-61.519-61.539c0-0.804,0.02-1.588,0.05-2.383v-0.01c0.101,0.01,0.201,0.02,0.312,0.01
	c0.101,0.01,0.211,0.01,0.312,0.01h121.701c0.211,0,0.422,0,0.633-0.02v0.02C176.505,73.121,176.526,73.915,176.526,74.709z"/>
<path style="fill:#D8E0EA;" d="M480.4,426.837l-60.051,26.178c-7.173,3.129-15.607-0.185-18.736-7.358l-5.181-11.883
	c-0.505-1.152-1.488-2.018-2.699-2.363l-41.214-11.74c-8.409-2.397-13.59-11.32-11.083-19.694
	c2.455-8.183,11.1-12.942,19.333-10.596l10.057,2.716c2.8,0.757,5.306-1.438,5.306-4.037c0-0.555-0.118-1.127-0.362-1.69
	c-0.135-0.295-0.252-0.597-0.362-0.9c-0.143-0.286-0.286-0.58-0.42-0.875l-29.34-67.292c-3.406-7.821,0.059-16.987,7.703-20.636
	c0.547-0.26,1.11-0.496,1.699-0.698c7.863-2.691,16.457,1.345,19.779,8.964l27.777,63.701l44.049-19.207
	c7.173-3.129,15.599,0.185,18.728,7.358l21.057,48.286l1.32,3.027C490.878,415.282,487.573,423.708,480.4,426.837z"/>
<path style="fill:#5DE0BF;" d="M497.874,462.266l-50.473,22.008l-14.784,6.449c-4.625,2.01-9.998-0.101-12.017-4.717l-8.501-19.51
	c-2.372-5.449,0.135-11.84,5.584-14.212l15.162-6.618l47.025-20.502c5.449-2.372,11.84,0.143,14.212,5.584l8.511,19.509
	C504.601,454.874,502.491,460.256,497.874,462.266z"/>
<path style="fill:#76FFD9;" d="M497.874,462.266l-50.473,22.008c-2.825-0.757-5.289-2.742-6.551-5.634l-9.293-21.318
	c-1.724-3.952-1.085-8.376,1.287-11.655l47.025-20.502c5.449-2.372,11.84,0.143,14.212,5.584l8.511,19.509
	C504.601,454.874,502.491,460.256,497.874,462.266z"/>
<path style="fill:#FFFFFF;" d="M486.437,405.074l-58.369,25.985c-7.022,3.12-15.247-0.042-18.349-7.064L353.35,296.668
	c0.547-0.26,1.11-0.496,1.699-0.698c7.863-2.691,16.457,1.345,19.779,8.964l27.777,63.701l44.049-19.207
	c7.173-3.129,15.599,0.185,18.728,7.358L486.437,405.074z"/>
<path style="fill:#5DE0BF;" d="M217.997,30.181c0,11.642-4.715,22.179-12.346,29.809c-7.49,7.49-17.785,12.175-29.176,12.336
	c-0.211,0.01-0.422,0.01-0.633,0.01H54.141c-0.211,0-0.422,0-0.623-0.01c-22.993-0.332-41.522-19.072-41.522-42.145
	c0-2.443,0.985-4.645,2.584-6.243c1.599-1.609,3.81-2.594,6.253-2.594H209.16C214.036,21.344,217.997,25.305,217.997,30.181z"/>
<path style="fill:#FFC843;" d="M176.475,72.336c0.03,0.784,0.05,1.578,0.05,2.373c0,24.632-14.477,45.895-35.399,55.718
	c-20.902-9.833-35.379-31.086-35.379-55.718c0-0.794,0.02-1.588,0.05-2.373v-0.02c0.101,0.01,0.201,0.02,0.312,0.01
	c0.101,0.01,0.211,0.01,0.312,0.01L176.475,72.336L176.475,72.336z"/>
<path style="fill:#76FFD9;" d="M217.997,30.181c0,11.642-4.715,22.179-12.346,29.809c-7.49,7.49-17.785,12.175-29.176,12.336v0.01
	h-70.055c-0.211,0-0.422,0-0.623-0.01c-22.993-0.332-41.522-19.072-41.522-42.145c0-2.443,0.985-4.645,2.584-6.243
	c1.599-1.609,3.81-2.594,6.253-2.594H209.16C214.036,21.344,217.997,25.305,217.997,30.181z"/>
<g>
	<path style="fill:#FFA816;" d="M390.093,99.002c19.739,0,35.796,16.059,35.796,35.796c0,4.165,3.376,7.54,7.54,7.54
		s7.54-3.375,7.54-7.54c0-28.054-22.823-50.877-50.877-50.877c-4.164,0-7.54,3.375-7.54,7.54
		C382.552,95.627,385.928,99.002,390.093,99.002z"/>
	<path style="fill:#FFA816;" d="M390.093,28.214c58.771,0,106.585,47.814,106.585,106.585c0,4.165,3.376,7.54,7.54,7.54
		c4.164,0,7.54-3.375,7.54-7.54c0-67.087-54.579-121.666-121.666-121.666c-4.164,0-7.54,3.375-7.54,7.54
		S385.928,28.214,390.093,28.214z"/>
	<path style="fill:#FFA816;" d="M390.093,62.277c39.989,0,72.523,32.533,72.523,72.523c0,4.165,3.376,7.54,7.54,7.54
		c4.164,0,7.54-3.375,7.54-7.54c0-48.304-39.298-87.603-87.603-87.603c-4.164,0-7.54,3.375-7.54,7.54S385.928,62.277,390.093,62.277
		z"/>
</g>
<g>
	<path style="fill:#FFFFFF;" d="M275.917,169.447h29.718c4.442,0,8.043-3.601,8.043-8.043s-3.601-8.043-8.043-8.043h-29.718
		c-4.442,0-8.043,3.601-8.043,8.043S271.475,169.447,275.917,169.447z"/>
	<circle style="fill:#FFFFFF;" cx="330.8" cy="161.404" r="5.992"/>
	<path style="fill:#FFFFFF;" d="M328.283,455.838h-43.859c-4.164,0-7.54,3.375-7.54,7.54s3.376,7.54,7.54,7.54h43.859
		c4.164,0,7.54-3.375,7.54-7.54S332.447,455.838,328.283,455.838z"/>
</g>
<g>
	<path style="fill:#434C54;" d="M392.965,364.975c-0.006-0.014-0.015-0.035-0.023-0.052c-0.002-0.005-0.005-0.012-0.008-0.017
		C392.945,364.929,392.956,364.953,392.965,364.975z"/>
	<path style="fill:#434C54;" d="M510.575,446.4l-8.001-18.351c-1.385-3.177-3.594-5.83-6.372-7.773
		c1.809-5.136,1.763-10.94-0.58-16.316l-22.43-51.445c-3.66-8.375-11.874-13.392-20.48-13.392c-2.976,0-5.992,0.603-8.888,1.86
		l-35.741,15.583V163.283c0-19.585-15.935-35.53-35.53-35.53H240.156c-19.595,0-35.53,15.945-35.53,35.53v299.652
		c0,19.585,15.935,35.53,35.53,35.53h132.398c16.191,0,29.874-10.891,34.142-25.722l6.941,15.919
		c2.784,6.387,9.043,10.204,15.604,10.204c6.278,0,3.872-0.689,72.548-30.097c4.161-1.814,7.367-5.139,9.026-9.365
		C512.474,455.181,512.389,450.561,510.575,446.4z M219.706,163.283c0-11.27,9.179-20.449,20.449-20.449h132.398
		c11.27,0,20.449,9.179,20.449,20.449v161.534l-10.587-24.28c-3.569-8.204-11.24-13.542-19.585-14.487
		c-6.113-12.879-16.548-23.586-29.86-29.85c-3.76-1.78-8.264-0.161-10.034,3.609c-1.769,3.76-0.161,8.254,3.609,10.034
		c9.058,4.263,16.368,11.24,21.123,19.675c-4.021,2.534-7.259,6.233-9.199,10.647c-2.684,6.113-2.704,13.11-0.05,19.203l8.154,18.71
		c-14.614,23.347-39.867,22.086-40.225,22.199c-26.17,0-47.464-21.294-47.464-47.464c0-16.689,8.516-31.84,22.772-40.547
		c3.559-2.172,4.675-6.816,2.513-10.365c-2.172-3.559-6.816-4.675-10.365-2.503c-18.78,11.461-30,31.428-30,53.416
		c0,34.484,28.06,62.544,62.544,62.544c1.029-0.273,27.424,1.268,47.162-21.384l11.904,27.316l-2.322-0.633
		c-12.416-3.499-25.526,3.69-29.226,16.066c-1.81,6.032-1.106,12.447,1.971,18.077c6.474,11.799,18.192,12.211,21.656,13.711
		H219.706L219.706,163.283L219.706,163.283z M393.003,462.935c0,11.27-9.179,20.449-20.449,20.449H240.156
		c-11.27,0-20.449-9.179-20.449-20.449V443.59h172.872l0.425,0.977L393.003,462.935L393.003,462.935z M409.27,441.611
		c-0.044-0.103-2.835-6.506-2.658-6.1l-2.007-4.602c-0.281-0.41-1.855-6.238-8.405-8.099l-3.197-0.915l-38.124-10.858
		c-2.071-0.593-3.871-2.041-4.936-3.971c-3.447-6.303,2.898-12.895,8.908-10.888l10.084,2.715
		c10.021,2.703,19.263-7.58,13.824-18.137c-0.06-0.121-0.131-0.241-0.181-0.362c-0.043-0.099-0.07-0.161-0.087-0.201
		c0.002,0.005,0.005,0.01,0.007,0.016c-0.005-0.011-0.01-0.024-0.016-0.036c0.003,0.007,0.005,0.011,0.009,0.02
		c-0.008-0.018-0.014-0.032-0.018-0.041c-0.001-0.002-0.002-0.004-0.003-0.006c-0.676-1.548-5.089-11.674-28.675-65.775
		c-0.203-0.77-2.361-3.744-0.593-7.731c0.982-2.164,2.639-3.587,4.625-4.263c3.83-1.317,8.154,0.704,9.843,4.585
		c20.209,46.345,24.461,56.095,25.202,57.793c0.002,0.005,0.005,0.012,0.01,0.023c-0.002-0.004-0.003-0.007-0.005-0.01
		c0.006,0.014,0.011,0.025,0.016,0.038c0.003,0.007,0.007,0.015,0.01,0.023v-0.001c0,0,0.001,0.002,0.001,0.003l-0.001-0.002
		c0.004,0.009,0.008,0.019,0.013,0.029c0.004,0.009,0.007,0.017,0.012,0.028c-0.003-0.006-0.005-0.011-0.007-0.017
		c0.01,0.022,0.016,0.036,0.024,0.054c0.008,0.019,0.017,0.038,0.026,0.061c-0.001-0.003-0.002-0.005-0.004-0.008
		c0.01,0.022,0.018,0.042,0.025,0.058v-0.001c0.004,0.01,0.008,0.018,0.013,0.029c2.071,3.866,2.347,8.221,6.947,10.034
		c4.052,1.583,7.047-0.675,8.134-0.985l42.176-18.378c3.147-1.367,6.816,0.07,8.184,3.217l22.43,51.445
		c1.377,3.147-0.07,6.816-3.217,8.184c-9.839,4.291,15.793-6.888-60.2,26.253C414.311,446.203,410.636,444.756,409.27,441.611z
		 M495.36,454.025L495.36,454.025l-65.78,28.68c-0.459,0.201-0.997-0.011-1.197-0.47l-8.002-18.351
		c-0.36-0.827-0.17-1.573-0.024-1.946c0.147-0.371,0.515-1.048,1.342-1.409c67.084-29.248,62.927-27.576,63.761-27.576
		c0.977,0,1.948,0.562,2.368,1.525l8.001,18.351C496.032,453.293,495.82,453.826,495.36,454.025z"/>
	<path style="fill:#434C54;" d="M306.354,315.924c4.164,0,7.54-3.375,7.54-7.54v-68.283c0-4.165-3.376-7.54-7.54-7.54
		s-7.54,3.375-7.54,7.54v68.283C298.813,312.548,302.19,315.924,306.354,315.924z"/>
	<path style="fill:#434C54;" d="M46.086,79.211c2.328,35.998,32.334,64.576,68.903,64.576c36.576,0,66.586-28.579,68.915-64.576
		c23.579-3.864,41.632-24.373,41.632-49.03c0-9.031-7.347-16.379-16.379-16.379H20.83c-9.031,0-16.38,7.348-16.38,16.38
		C4.45,54.839,22.505,75.35,46.086,79.211z M114.989,128.707c-28.027,0-51.134-21.47-53.74-48.832h107.492
		C166.135,107.237,143.022,128.707,114.989,128.707z M20.83,28.883h188.328c0.716,0,1.298,0.583,1.298,1.299
		c0,19.085-15.527,34.612-34.612,34.612H54.143c-19.085,0-34.612-15.527-34.612-34.613C19.531,29.465,20.114,28.883,20.83,28.883z"
		/>
</g>
<g>
	<path style="fill:#FFC843;" d="M115.673,152.842c-4.164,0-7.54,3.375-7.54,7.54v20.397c0,4.165,3.376,7.54,7.54,7.54
		s7.54-3.375,7.54-7.54v-20.397C123.213,156.217,119.837,152.842,115.673,152.842z"/>
	<path style="fill:#FFC843;" d="M152.171,152.517c-1.328-3.947-5.605-6.066-9.551-4.741c-3.947,1.328-6.069,5.605-4.741,9.552
		l6.507,19.331c1.322,3.927,5.583,6.074,9.551,4.741c3.947-1.328,6.069-5.605,4.741-9.552L152.171,152.517z"/>
	<path style="fill:#FFC843;" d="M177.313,134.749c-2.598-3.254-7.342-3.785-10.598-1.188c-3.254,2.599-3.786,7.343-1.188,10.598
		l12.726,15.939c2.598,3.254,7.342,3.785,10.598,1.188c3.254-2.599,3.786-7.343,1.188-10.598L177.313,134.749z"/>
	<path style="fill:#FFC843;" d="M212.271,120.082l-17.41-10.626c-3.555-2.171-8.194-1.047-10.364,2.507
		c-2.17,3.554-1.047,8.195,2.508,10.364l17.41,10.626c1.227,0.749,2.582,1.106,3.921,1.106
		C215.916,134.058,218.765,124.045,212.271,120.082z"/>
	<path style="fill:#FFC843;" d="M202.699,79.683c-4.088-0.822-8.059,1.821-8.882,5.902c-0.823,4.083,1.819,8.059,5.902,8.881
		c21.186,4.219,20.139,4.181,21.493,4.181c3.516,0,6.662-2.472,7.383-6.051c0.823-4.083-1.819-8.059-5.902-8.881L202.699,79.683z"/>
	<path style="fill:#FFC843;" d="M35.165,87.074c-0.623-4.117-4.468-6.938-8.583-6.328l-20.168,3.05
		c-4.118,0.623-6.951,4.466-6.328,8.584c0.617,4.079,4.417,6.949,8.583,6.328l20.168-3.05
		C32.955,95.035,35.788,91.192,35.165,87.074z"/>
	<path style="fill:#FFC843;" d="M44.979,113.272c-1.994-3.656-6.573-5.002-10.23-3.01l-17.908,9.764
		c-3.657,1.994-5.005,6.574-3.011,10.231c1.984,3.637,6.556,5.012,10.23,3.01l17.908-9.764
		C45.624,121.508,46.973,116.928,44.979,113.272z"/>
	<path style="fill:#FFC843;" d="M63.162,134.533c-3.124-2.754-7.888-2.453-10.642,0.67l-13.488,15.301
		c-4.313,4.893-0.764,12.527,5.653,12.527c2.09,0,4.168-0.863,5.659-2.554l13.488-15.301
		C66.586,142.052,66.286,137.287,63.162,134.533z"/>
	<path style="fill:#FFC843;" d="M87.521,148.294c-3.879-1.518-8.252,0.393-9.771,4.27l-7.441,18.991
		c-1.519,3.877,0.392,8.252,4.27,9.772c3.887,1.52,8.255-0.398,9.771-4.27l7.441-18.991
		C93.309,154.188,91.397,149.813,87.521,148.294z"/>
</g>
<g>
</g>
<g>
</g>
<g>
</g>
<g>
</g>
<g>
</g>
<g>
</g>
<g>
</g>
<g>
</g>
<g>
</g>
<g>
</g>
<g>
</g>
<g>
</g>
<g>
</g>
<g>
</g>
<g>
</g>
</svg>
