<svg height="512" viewBox="0 0 60 60" width="512" xmlns="http://www.w3.org/2000/svg"><g id="016---Traffic-Lights" fill="none"><g id="Layer_4"><rect id="Rectangle-path" fill="#cad9fc" height="42.186" rx="1.994" transform="matrix(.707 -.707 .707 .707 -12.426 30)" width="42.186" x="8.907" y="8.907"/><path id="Shape" d="m54.92 31.41-26.67 26.67-26.67-26.67c-.37445618-.3736892-.58488806-.8809811-.58488806-1.41s.21043188-1.0363108.58488806-1.41l26.67-26.67 26.67 26.67c.3744562.3736892.5848881.8809811.5848881 1.41s-.2104319 1.0363108-.5848881 1.41z" fill="#e8edfc"/><rect id="Rectangle-path" fill="#a4c2f7" height="34" rx="1" width="18" x="21" y="13"/><g fill="#e8edfc"><circle id="Oval" cx="30" cy="20" r="3"/><circle id="Oval" cx="30" cy="30" r="3"/><circle id="Oval" cx="30" cy="40" r="3"/></g></g><path id="Shape" d="m27.75 58.08.34.34c.3736892.3744562.8809811.5848881 1.41.5848881s1.0363108-.2104319 1.41-.5848881l.09-.09-.25-.25-26.67-26.67c-.37445618-.3736892-.58488806-.8809811-.58488806-1.41s.21043188-1.0363108.58488806-1.41l26.67-26.67.25-.25-.09-.09c-.3736892-.37445618-.8809811-.58488806-1.41-.58488806s-1.0363108.21043188-1.41.58488806l-.34.34-26.67 26.67c-.37445618.3736892-.58488806.8809811-.58488806 1.41s.21043188 1.0363108.58488806 1.41z" fill="#fff" transform="translate(1)"/><g id="Layer_2" transform="translate(-1 -1)"><path id="Rectangle-path" d="m1.413 25.757h8v2h-8z" fill="#fff" transform="matrix(.707 -.707 .707 .707 -17.335 11.665)"/><g fill="#428dff"><path id="Shape" d="m6.433 26.757c0-.5522847-.44771525-1-1-1h-.01c-.55094938.0055098-.99364192.4556353-.98997789 1.0066001.00366403.5509647.45230402.9951627 1.00327794.9933445.55097393-.0018183.9966724-.4489677.99669995-.9999446z"/><path id="Shape" d="m39 49c1.1045695 0 2-.8954305 2-2v-32c0-1.1045695-.8954305-2-2-2h-16c-1.1045695 0-2 .8954305-2 2v32c0 1.1045695.8954305 2 2 2zm-16-34h16v32h-16z"/><path id="Shape" d="m31 17c-2.209139 0-4 1.790861-4 4s1.790861 4 4 4 4-1.790861 4-4-1.790861-4-4-4zm0 6c-1.1045695 0-2-.8954305-2-2s.8954305-2 2-2 2 .8954305 2 2-.8954305 2-2 2z"/><path id="Shape" d="m31 27c-2.209139 0-4 1.790861-4 4s1.790861 4 4 4 4-1.790861 4-4-1.790861-4-4-4zm0 6c-1.1045695 0-2-.8954305-2-2s.8954305-2 2-2 2 .8954305 2 2-.8954305 2-2 2z"/><path id="Shape" d="m31 37c-2.209139 0-4 1.790861-4 4s1.790861 4 4 4 4-1.790861 4-4-1.790861-4-4-4zm0 6c-1.1045695 0-2-.8954305-2-2s.8954305-2 2-2 2 .8954305 2 2-.8954305 2-2 2z"/><path id="Shape" d="m33.121 1.877c-1.1714996-1.17114581-3.0705004-1.17114581-4.242 0l-21.345 21.345c-.25995658.2510745-.3642126.6228779-.27269716.9725073.09151544.3496295.3645604.6226744.71418984.7141899.34962943.0915154.72143285-.0127406.97250732-.2726972l21.344-21.344c.3904999-.39038194 1.0235001-.39038194 1.414 0l27 27c.3903819.3904999.3903819 1.0235001 0 1.414l-27 27c-.3904999.3903819-1.0235001.3903819-1.414 0l-27-27c-.39038194-.3904999-.39038194-1.0235001 0-1.414.25977287-.2512596.36376124-.6231337.27199775-.9726946-.09176348-.3495608-.36499857-.6224097-.71468887-.7136787-.34969031-.091269-.72141696.0132453-.97230888.2733733-1.17114581 1.1714996-1.17114581 3.0705004 0 4.242l27 27c1.1714996 1.1711458 3.0705004 1.1711458 4.242 0l27-27c1.1711458-1.1714996 1.1711458-3.0705004 0-4.242z"/></g></g></g></svg>