<?xml version="1.0" encoding="iso-8859-1"?>
<!-- Generator: Adobe Illustrator 19.0.0, SVG Export Plug-In . SVG Version: 6.00 Build 0)  -->
<svg version="1.1" id="Capa_1" xmlns="http://www.w3.org/2000/svg" xmlns:xlink="http://www.w3.org/1999/xlink" x="0px" y="0px"
	 viewBox="0 0 512.001 512.001" style="enable-background:new 0 0 512.001 512.001;" xml:space="preserve">
<rect x="240.878" y="406.704" style="fill:#76FFD9;" width="30.248" height="77.595"/>
<g>
	<rect x="175.356" y="474.217" style="fill:#FFFFFF;" width="161.282" height="30.248"/>
	<polygon style="fill:#FFFFFF;" points="417.283,195.016 94.715,195.016 54.397,386.54 457.605,386.54 	"/>
</g>
<g>
	<polygon style="fill:#76FFD9;" points="417.283,195.016 457.603,386.532 427.365,386.532 387.045,195.016 	"/>
	<rect x="306.4" y="474.217" style="fill:#76FFD9;" width="30.238" height="30.248"/>
</g>
<rect x="54.394" y="386.539" style="fill:#5DE0BF;" width="403.206" height="30.248"/>
<rect x="427.362" y="386.529" style="fill:#00A97D;" width="30.238" height="30.238"/>
<g>
	<polygon style="fill:#76FFD9;" points="197.758,258.857 81.275,258.857 67.836,322.698 193.279,322.698 	"/>
	<polygon style="fill:#76FFD9;" points="314.241,258.857 430.723,258.857 444.164,322.698 318.721,322.698 	"/>
	<polygon style="fill:#76FFD9;" points="193.279,322.698 318.722,322.698 323.202,386.54 188.8,386.54 	"/>
	<polygon style="fill:#76FFD9;" points="197.758,258.857 202.237,195.016 309.761,195.016 314.241,258.857 	"/>
</g>
<polygon style="fill:#C1C8D2;" points="413.926,258.857 420.646,322.698 444.164,322.698 430.991,260.126 430.725,258.857 "/>
<circle style="fill:#FFC843;" cx="255.997" cy="78.098" r="30.238"/>
<path style="fill:#FFA816;" d="M256,47.859c-3.535,0-6.927,0.612-10.081,1.728c11.744,4.153,20.161,15.348,20.161,28.514
	c0,13.167-8.417,24.362-20.161,28.514c3.153,1.115,6.545,1.728,10.081,1.728c16.702,0,30.242-13.54,30.242-30.242
	C286.242,61.399,272.702,47.859,256,47.859z"/>
<g>
	<path style="fill:#FFD347;" d="M256,25.158c-4.165,0-7.539-3.376-7.539-7.539V7.539C248.461,3.376,251.835,0,256,0
		s7.539,3.376,7.539,7.539v10.08C263.539,21.783,260.165,25.158,256,25.158z"/>
	<path style="fill:#FFD347;" d="M213.234,42.873c-1.929,0-3.859-0.736-5.331-2.208l-7.128-7.127
		c-2.945-2.944-2.945-7.718-0.001-10.663c2.945-2.944,7.719-2.944,10.663,0l7.128,7.127c2.945,2.944,2.945,7.718,0.001,10.663
		C217.093,42.137,215.163,42.873,213.234,42.873z"/>
	<path style="fill:#FFD347;" d="M195.519,85.639h-10.08c-4.165,0-7.539-3.376-7.539-7.539s3.375-7.539,7.539-7.539h10.08
		c4.165,0,7.539,3.376,7.539,7.539C203.058,82.265,199.684,85.639,195.519,85.639z"/>
	<path style="fill:#FFD347;" d="M206.105,135.535c-1.929,0-3.859-0.736-5.331-2.208c-2.945-2.944-2.945-7.718-0.001-10.663
		l7.127-7.127c2.945-2.944,7.719-2.944,10.662,0c2.945,2.944,2.945,7.718,0.001,10.663l-7.127,7.127
		C209.965,134.798,208.034,135.535,206.105,135.535z"/>
	<path style="fill:#FFD347;" d="M256,156.202c-4.165,0-7.539-3.376-7.539-7.539v-10.08c0-4.164,3.375-7.539,7.539-7.539
		s7.539,3.376,7.539,7.539v10.08C263.539,152.826,260.165,156.202,256,156.202z"/>
	<path style="fill:#FFD347;" d="M305.895,135.535c-1.93,0-3.859-0.736-5.332-2.209l-7.127-7.127
		c-2.944-2.944-2.944-7.718,0.001-10.663c2.944-2.944,7.718-2.942,10.662,0l7.127,7.127c2.944,2.944,2.944,7.718-0.001,10.663
		C309.754,134.798,307.824,135.535,305.895,135.535z"/>
	<path style="fill:#FFD347;" d="M326.561,85.64h-10.08c-4.165,0-7.539-3.376-7.539-7.539c0-4.164,3.375-7.539,7.539-7.539h10.08
		c4.165,0,7.539,3.376,7.539,7.539C334.101,82.265,330.726,85.64,326.561,85.64z"/>
	<path style="fill:#FFD347;" d="M298.767,42.873c-1.929,0-3.859-0.736-5.331-2.208c-2.945-2.944-2.945-7.718-0.001-10.663
		l7.127-7.127c2.945-2.944,7.719-2.944,10.662,0c2.945,2.944,2.945,7.718,0.001,10.663l-7.127,7.127
		C302.626,42.137,300.696,42.873,298.767,42.873z"/>
</g>
<polygon style="fill:#5DE0BF;" points="413.927,322.698 444.165,322.698 430.725,258.857 400.487,258.857 "/>
<path style="fill:#434C54;" d="M256,115.881c20.833,0,37.781-16.949,37.781-37.78c0-20.833-16.949-37.781-37.781-37.781
	s-37.781,16.949-37.781,37.781C218.219,98.933,235.167,115.881,256,115.881z M256,55.398c12.518,0,22.703,10.184,22.703,22.703
	S268.518,100.802,256,100.802c-12.518,0-22.703-10.184-22.703-22.702C233.297,65.583,243.482,55.398,256,55.398z"/>
<g>
	<path style="fill:#FF8025;" d="M256,25.158c4.165,0,7.539-3.376,7.539-7.539V7.539C263.539,3.376,260.165,0,256,0
		s-7.539,3.376-7.539,7.539v10.08C248.461,21.783,251.835,25.158,256,25.158z"/>
	<path style="fill:#FF8025;" d="M207.903,40.665c1.472,1.472,3.402,2.208,5.331,2.208c1.929,0,3.859-0.736,5.332-2.209
		c2.944-2.944,2.944-7.718-0.001-10.663l-7.128-7.127c-2.943-2.944-7.717-2.943-10.663,0c-2.944,2.944-2.944,7.718,0.001,10.663
		L207.903,40.665z"/>
	<path style="fill:#FF8025;" d="M185.439,85.639h10.08c4.165,0,7.539-3.376,7.539-7.539s-3.375-7.539-7.539-7.539h-10.08
		c-4.165,0-7.539,3.376-7.539,7.539C177.9,82.265,181.275,85.639,185.439,85.639z"/>
	<path style="fill:#FF8025;" d="M207.901,115.536l-7.127,7.127c-2.944,2.944-2.944,7.718,0,10.662
		c1.473,1.472,3.403,2.209,5.332,2.209s3.859-0.736,5.332-2.209l7.127-7.127c2.944-2.944,2.944-7.718,0-10.662
		C215.619,112.592,210.846,112.592,207.901,115.536z"/>
	<path style="fill:#FF8025;" d="M248.461,138.582v10.08c0,4.164,3.375,7.539,7.539,7.539s7.539-3.376,7.539-7.539v-10.08
		c0-4.164-3.375-7.539-7.539-7.539C251.835,131.042,248.461,134.418,248.461,138.582z"/>
	<path style="fill:#FF8025;" d="M293.436,115.536c-2.945,2.944-2.945,7.718-0.001,10.663l7.127,7.127
		c1.473,1.472,3.402,2.209,5.332,2.209c1.929,0,3.859-0.736,5.331-2.208c2.945-2.944,2.945-7.718,0.001-10.663l-7.127-7.127
		C301.155,112.593,296.381,112.592,293.436,115.536z"/>
	<path style="fill:#FF8025;" d="M308.942,78.101c0,4.164,3.375,7.539,7.539,7.539h10.08c4.165,0,7.539-3.376,7.539-7.539
		c0-4.164-3.375-7.539-7.539-7.539h-10.08C312.318,70.562,308.942,73.937,308.942,78.101z"/>
	<path style="fill:#FF8025;" d="M298.767,42.873c1.929,0,3.859-0.736,5.332-2.209l7.127-7.127c2.944-2.944,2.944-7.718-0.001-10.663
		c-2.943-2.944-7.717-2.943-10.662,0l-7.127,7.127c-2.944,2.944-2.944,7.718,0.001,10.663
		C294.908,42.137,296.838,42.873,298.767,42.873z"/>
</g>
<path style="fill:#434C54;" d="M465.124,386.178c-0.006-0.131-0.007-0.26-0.02-0.391c-0.026-0.265-0.066-0.527-0.12-0.783
	c-0.001-0.006-0.001-0.011-0.002-0.016l-13.426-63.776c-0.005-0.024-0.01-0.048-0.015-0.072l-13.426-63.772
	c-0.004-0.022-0.009-0.044-0.014-0.066l-13.439-63.838c-0.734-3.489-3.812-5.986-7.378-5.986H94.715
	c-3.566,0-6.643,2.497-7.378,5.986l-13.436,63.83c-0.006,0.027-0.011,0.054-0.017,0.081l-13.425,63.775
	c-0.004,0.018-0.008,0.036-0.011,0.054l-13.425,63.778c-0.056,0.269-0.1,0.545-0.126,0.824c-0.006,0.063-0.005,0.126-0.01,0.189
	c-0.013,0.181-0.027,0.361-0.027,0.546v30.243c0,4.164,3.375,7.539,7.539,7.539h178.94v42.356h-57.982
	c-4.165,0-7.539,3.376-7.539,7.539v22.704H94.716c-4.165,0-7.539,3.376-7.539,7.539c0,4.164,3.375,7.539,7.539,7.539h322.557
	c4.165,0,7.539-3.376,7.539-7.539c0-4.164-3.375-7.539-7.539-7.539h-73.091v-22.704c0-4.164-3.375-7.539-7.539-7.539H278.66v-42.356
	h178.942c4.165,0,7.539-3.376,7.539-7.539v-30.108c0-0.012,0-0.024,0-0.036v-0.099C465.142,386.418,465.129,386.299,465.124,386.178
	z M329.104,481.757v15.164H182.896v-15.164H329.104z M248.417,466.678v-42.356h15.165v42.356H248.417z M450.064,409.243H271.209
	c-0.029,0-0.058-0.004-0.087-0.004h-30.244c-0.029,0-0.058,0.004-0.087,0.004H61.936v-15.164h35.915
	c4.165,0,7.539-3.376,7.539-7.539c0-4.164-3.375-7.539-7.539-7.539H63.689l10.265-48.763l16.613-78.92l10.265-48.763h310.337
	l37.146,176.447H130.455c-4.165,0-7.539,3.376-7.539,7.539c0,4.164,3.375,7.539,7.539,7.539h58.338c0.005,0,0.009,0,0.014,0
	c0.003,0,0.007,0,0.01,0h134.367c0.004,0,0.007,0,0.01,0c0.005,0,0.009,0,0.014,0h126.855L450.064,409.243L450.064,409.243z"/>
<g>
</g>
<g>
</g>
<g>
</g>
<g>
</g>
<g>
</g>
<g>
</g>
<g>
</g>
<g>
</g>
<g>
</g>
<g>
</g>
<g>
</g>
<g>
</g>
<g>
</g>
<g>
</g>
<g>
</g>
</svg>
